<svg width="36" height="32" viewBox="0 0 36 32" fill="#d9d9d9" xmlns="http://www.w3.org/2000/svg">
<path fill="none" style="fill: var(--color1, #d9d9d9)" opacity="0.138" d="M0.013 6.224c0-1.432 0.042-4.010 0.484-4.847 0.753-1.428 2.752-1.339 4.364-1.263l26.821 1.252c0.161 0.008 0.322 0.030 0.479 0.066 1.596 0.377 2.818 1.645 3.121 3.239l0.004 0.026 0.030 0.161c0.16 0.828 0.252 1.779 0.252 2.753 0 0 0 0 0 0.001v-0 15.017c0 0 0 0 0 0 0 1.233-0.436 2.364-1.162 3.248l0.007-0.009c-0.648 0.788-1.623 1.287-2.715 1.287-0 0-0 0-0 0h-6.123c-0.15 0-0.327 0.026-0.515 0.068-1.118 0.252-1.996 1.073-2.68 1.993-0.152 0.204-0.32 0.397-0.491 0.585-0.791 0.87-1.848 2.2-4.154 2.2-0.767 0-1.474-0.217-2.049-0.489-0.913-0.433-1.565-1.242-2.164-2.056-1.043-1.417-2.781-2.127-4.538-2.023-1.877 0.111-4.099 0.104-5.714-0.278-2.606-0.617-3.386-3.984-3.257-5.508v-15.422z"></path>
</svg>


