<?xml version="1.0" encoding="UTF-8" ?>
<!DOCTYPE svg PUBLIC "-//W3C//DTD SVG 1.1//EN" "http://www.w3.org/Graphics/SVG/1.1/DTD/svg11.dtd">
<svg width="332pt" height="331pt" viewBox="0 0 332 331" version="1.1" xmlns="http://www.w3.org/2000/svg">
<g id="#ffffffff">
<path fill="#ffffff" opacity="1.00" d=" M 0.00 0.00 L 332.00 0.00 L 332.00 331.00 L 0.00 331.00 L 0.00 0.00 M 146.86 2.04 C 106.33 6.76 67.77 27.10 41.36 58.26 C 18.30 84.73 4.34 118.92 1.91 153.92 C -1.01 192.81 10.83 232.54 34.20 263.72 C 56.96 294.45 90.90 316.63 128.10 325.37 C 145.57 329.95 163.82 330.37 181.76 329.28 C 199.35 327.43 216.77 323.12 232.91 315.81 C 262.68 302.95 288.11 280.68 305.59 253.44 C 321.84 227.39 331.43 196.84 330.92 166.02 C 331.68 129.96 319.06 94.06 297.26 65.48 C 274.92 36.22 242.47 14.85 206.75 5.93 C 187.27 0.86 166.82 -0.23 146.86 2.04 Z" />
<path fill="#ffffff" opacity="1.00" d=" M 130.19 10.17 C 149.08 5.63 168.85 4.94 188.10 7.49 C 222.57 12.10 255.48 28.33 279.79 53.26 C 305.32 78.52 321.43 112.89 325.15 148.56 C 329.24 185.61 319.62 223.98 298.64 254.79 C 280.41 281.43 254.13 302.71 223.85 314.09 C 207.65 320.42 190.39 323.81 173.06 324.76 C 164.45 325.30 155.85 324.09 147.28 324.59 C 148.64 324.15 150.09 324.13 151.50 323.96 C 112.69 320.86 75.48 302.36 49.17 273.71 C 27.55 250.73 13.23 221.02 8.51 189.83 C 1.51 145.99 13.91 99.46 42.11 65.13 C 64.29 37.73 95.71 17.79 130.19 10.17 M 132.85 20.93 C 97.48 28.81 65.53 50.53 44.78 80.19 C 21.78 112.26 12.82 153.94 20.32 192.65 C 26.72 228.35 47.17 261.16 75.98 283.11 C 95.71 298.25 119.31 308.37 143.94 311.97 C 174.30 316.70 206.17 311.68 233.53 297.65 C 257.72 285.48 278.34 266.43 292.65 243.45 C 313.08 210.94 319.88 170.21 311.22 132.82 C 307.48 114.50 299.37 97.33 289.17 81.75 C 283.03 73.64 276.80 65.51 269.37 58.52 C 258.63 48.75 247.01 39.70 233.91 33.29 C 203.07 17.47 166.59 12.91 132.85 20.93 Z" />
<path fill="#ffffff" opacity="1.00" d=" M 155.22 44.10 C 185.83 41.18 217.46 50.31 241.60 69.44 C 270.11 91.51 288.06 126.79 288.31 162.94 C 288.98 187.00 282.17 211.28 268.95 231.41 C 252.23 257.56 225.08 276.84 194.84 283.86 C 166.90 290.61 136.54 287.17 110.95 274.01 C 82.68 259.85 60.47 234.14 50.53 204.13 C 42.32 179.91 42.25 153.08 49.84 128.68 C 59.71 97.04 83.22 70.02 113.08 55.69 C 126.23 49.20 140.64 45.46 155.22 44.10 M 104.38 88.63 C 100.16 93.27 95.54 97.52 91.18 102.02 C 91.61 103.09 92.58 103.79 93.34 104.61 C 113.67 124.53 133.53 144.93 153.92 164.79 C 153.69 165.76 153.27 166.66 152.48 167.29 C 142.78 176.66 133.39 186.33 123.79 195.79 C 112.91 206.86 101.57 217.51 91.04 228.89 C 95.81 233.04 100.01 237.79 104.56 242.18 C 125.81 221.31 146.57 199.92 168.00 179.24 C 189.21 200.06 210.18 221.15 231.14 242.23 C 235.70 237.84 240.07 233.25 244.66 228.88 C 242.69 226.03 240.04 223.79 237.61 221.37 C 220.96 204.71 204.27 188.09 187.59 171.47 C 185.69 169.30 183.20 167.62 181.81 165.04 C 188.83 158.32 195.56 151.31 202.51 144.51 C 216.50 130.27 230.95 116.47 244.73 102.04 C 240.16 97.59 235.74 92.97 231.09 88.59 C 210.22 109.79 189.02 130.67 167.95 151.68 C 146.57 130.86 125.81 109.37 104.38 88.63 Z" />
</g>
<g id="#f91111ff">
<path fill="#f91111" opacity="1.00" d=" M 146.86 2.04 C 166.82 -0.23 187.27 0.86 206.75 5.93 C 242.47 14.85 274.92 36.22 297.26 65.48 C 319.06 94.06 331.68 129.96 330.92 166.02 C 331.43 196.84 321.84 227.39 305.59 253.44 C 288.11 280.68 262.68 302.95 232.91 315.81 C 216.77 323.12 199.35 327.43 181.76 329.28 C 163.82 330.37 145.57 329.95 128.10 325.37 C 90.90 316.63 56.96 294.45 34.20 263.72 C 10.83 232.54 -1.01 192.81 1.91 153.92 C 4.34 118.92 18.30 84.73 41.36 58.26 C 67.77 27.10 106.33 6.76 146.86 2.04 M 130.19 10.17 C 95.71 17.79 64.29 37.73 42.11 65.13 C 13.91 99.46 1.51 145.99 8.51 189.83 C 13.23 221.02 27.55 250.73 49.17 273.71 C 75.48 302.36 112.69 320.86 151.50 323.96 C 150.09 324.13 148.64 324.15 147.28 324.59 C 155.85 324.09 164.45 325.30 173.06 324.76 C 190.39 323.81 207.65 320.42 223.85 314.09 C 254.13 302.71 280.41 281.43 298.64 254.79 C 319.62 223.98 329.24 185.61 325.15 148.56 C 321.43 112.89 305.32 78.52 279.79 53.26 C 255.48 28.33 222.57 12.10 188.10 7.49 C 168.85 4.94 149.08 5.63 130.19 10.17 Z" />
<path fill="#f91111" opacity="1.00" d=" M 132.85 20.93 C 166.59 12.91 203.07 17.47 233.91 33.29 C 247.01 39.70 258.63 48.75 269.37 58.52 C 276.80 65.51 283.03 73.64 289.17 81.75 C 299.37 97.33 307.48 114.50 311.22 132.82 C 319.88 170.21 313.08 210.94 292.65 243.45 C 278.34 266.43 257.72 285.48 233.53 297.65 C 206.17 311.68 174.30 316.70 143.94 311.97 C 119.31 308.37 95.71 298.25 75.98 283.11 C 47.17 261.16 26.72 228.35 20.32 192.65 C 12.82 153.94 21.78 112.26 44.78 80.19 C 65.53 50.53 97.48 28.81 132.85 20.93 M 155.22 44.10 C 140.64 45.46 126.23 49.20 113.08 55.69 C 83.22 70.02 59.71 97.04 49.84 128.68 C 42.25 153.08 42.32 179.91 50.53 204.13 C 60.47 234.14 82.68 259.85 110.95 274.01 C 136.54 287.17 166.90 290.61 194.84 283.86 C 225.08 276.84 252.23 257.56 268.95 231.41 C 282.17 211.28 288.98 187.00 288.31 162.94 C 288.06 126.79 270.11 91.51 241.60 69.44 C 217.46 50.31 185.83 41.18 155.22 44.10 Z" />
</g>
<g id="#010101ff">
<path fill="#010101" opacity="1.00" d=" M 104.38 88.63 C 125.81 109.37 146.57 130.86 167.95 151.68 C 189.02 130.67 210.22 109.79 231.09 88.59 C 235.74 92.97 240.16 97.59 244.73 102.04 C 230.95 116.47 216.50 130.27 202.51 144.51 C 195.56 151.31 188.83 158.32 181.81 165.04 C 183.20 167.62 185.69 169.30 187.59 171.47 C 204.27 188.09 220.96 204.71 237.61 221.37 C 240.04 223.79 242.69 226.03 244.66 228.88 C 240.07 233.25 235.70 237.84 231.14 242.23 C 210.18 221.15 189.21 200.06 168.00 179.24 C 146.57 199.92 125.81 221.31 104.56 242.18 C 100.01 237.79 95.81 233.04 91.04 228.89 C 101.57 217.51 112.91 206.86 123.79 195.79 C 133.39 186.33 142.78 176.66 152.48 167.29 C 153.27 166.66 153.69 165.76 153.92 164.79 C 133.53 144.93 113.67 124.53 93.34 104.61 C 92.58 103.79 91.61 103.09 91.18 102.02 C 95.54 97.52 100.16 93.27 104.38 88.63 Z" />
</g>
</svg>
