<svg width="500" height="327" viewBox="0 0 500 327" fill="none" xmlns="http://www.w3.org/2000/svg">
<path d="M411.067 160.155C411.067 160.155 435.53 162.533 447.922 177.417C447.922 177.417 461.03 160.176 484.554 160.532C490.303 153.726 493.964 145.457 495.11 136.688C496.256 127.919 494.84 119.011 491.027 111.001C487.215 102.992 481.162 96.2096 473.574 91.4447C465.986 86.6799 457.175 84.1283 448.166 84.0873C439.158 84.0462 430.323 86.5172 422.69 91.2126C415.057 95.9081 408.941 102.635 405.052 110.609C401.164 118.584 399.664 127.479 400.727 136.258C401.79 145.036 405.372 153.338 411.056 160.197L411.067 160.155Z" fill="#8BAA36"/>
<path opacity="0.5" d="M411.067 160.155C411.067 160.155 435.53 162.533 447.922 177.417C447.922 177.417 461.03 160.176 484.554 160.532C490.303 153.726 493.964 145.457 495.11 136.688C496.256 127.919 494.84 119.011 491.027 111.001C487.215 102.992 481.162 96.2096 473.574 91.4447C465.986 86.6799 457.175 84.1283 448.166 84.0873C439.158 84.0462 430.323 86.5172 422.69 91.2126C415.057 95.9081 408.941 102.635 405.052 110.609C401.164 118.584 399.664 127.479 400.727 136.258C401.79 145.036 405.372 153.338 411.056 160.197L411.067 160.155Z" fill="#FAFAFA"/>
<path d="M447.105 87.3763L446.283 242.968H450.414L447.105 87.3763Z" fill="#B8B8B8"/>
<path d="M448.347 172.881C448.347 172.881 456.598 158.29 471.466 153.828C471.466 153.828 455.776 157.483 447.984 170.043L448.347 172.881Z" fill="#B8B8B8"/>
<path d="M448.347 131.548C448.347 131.548 456.598 116.956 471.466 112.494C471.466 112.494 455.776 116.139 447.984 128.709L448.347 131.548Z" fill="#B8B8B8"/>
<path d="M448.347 152.193C448.347 152.193 456.598 137.602 471.466 133.14C471.466 133.14 455.776 136.795 447.984 149.355L448.347 152.193Z" fill="#B8B8B8"/>
<path d="M447.119 142.075C447.119 142.075 439.146 127.495 424.801 123.032C424.801 123.032 439.947 126.678 447.514 139.247L447.119 142.075Z" fill="#B8B8B8"/>
<path d="M447.119 162.344C447.119 162.344 439.146 147.752 424.801 143.301C424.801 143.301 439.947 146.946 447.514 159.505L447.119 162.344Z" fill="#B8B8B8"/>
<path d="M10.6721 160.155C10.6721 160.155 35.1359 162.533 47.528 177.418C47.528 177.418 60.6351 160.176 84.1596 160.532C89.9086 153.726 93.5692 145.457 94.7152 136.688C95.8612 127.92 94.4454 119.012 90.6327 111.002C86.82 102.992 80.7673 96.21 73.1793 91.4452C65.5912 86.6803 56.7801 84.1288 47.7717 84.0877C38.7634 84.0466 29.9284 86.5177 22.2956 91.2131C14.6628 95.9085 8.54609 102.635 4.65772 110.61C0.769347 118.585 -0.730721 127.479 0.332169 136.258C1.39506 145.037 4.97718 153.339 10.6615 160.197L10.6721 160.155Z" fill="#8BAA36"/>
<path opacity="0.5" d="M10.6721 160.155C10.6721 160.155 35.1359 162.533 47.528 177.418C47.528 177.418 60.6351 160.176 84.1596 160.532C89.9086 153.726 93.5692 145.457 94.7152 136.688C95.8612 127.92 94.4454 119.012 90.6327 111.002C86.82 102.992 80.7673 96.21 73.1793 91.4452C65.5912 86.6803 56.7801 84.1288 47.7717 84.0877C38.7634 84.0466 29.9284 86.5177 22.2956 91.2131C14.6628 95.9085 8.54609 102.635 4.65772 110.61C0.769347 118.585 -0.730721 127.479 0.332169 136.258C1.39506 145.037 4.97718 153.339 10.6615 160.197L10.6721 160.155Z" fill="#FAFAFA"/>
<path d="M46.7212 87.3767L45.8887 242.968H50.0193L46.7212 87.3767Z" fill="#B8B8B8"/>
<path d="M47.9723 172.882C47.9723 172.882 56.2229 158.291 71.0912 153.829C71.0912 153.829 55.4011 157.484 47.6094 170.044L47.9723 172.882Z" fill="#B8B8B8"/>
<path d="M47.9723 131.549C47.9723 131.549 56.2229 116.957 71.0912 112.495C71.0912 112.495 55.4011 116.14 47.6094 128.71L47.9723 131.549Z" fill="#B8B8B8"/>
<path d="M47.9723 152.194C47.9723 152.194 56.2229 137.603 71.0912 133.141C71.0912 133.141 55.4011 136.796 47.6094 149.355L47.9723 152.194Z" fill="#B8B8B8"/>
<path d="M46.7305 142.076C46.7305 142.076 38.7574 127.495 24.4121 123.033C24.4121 123.033 39.5579 126.678 47.1255 139.248L46.7305 142.076Z" fill="#B8B8B8"/>
<path d="M46.7305 162.344C46.7305 162.344 38.7574 147.753 24.4121 143.301C24.4121 143.301 39.5579 146.947 47.1255 159.506L46.7305 162.344Z" fill="#B8B8B8"/>
<path d="M311.669 175.239C311.669 175.239 331.692 177.177 341.832 189.359C341.832 189.359 352.559 175.249 371.814 175.532C376.517 169.96 379.511 163.193 380.447 156.016C381.382 148.84 380.222 141.55 377.1 134.996C373.978 128.442 369.023 122.893 362.812 118.995C356.602 115.097 349.39 113.01 342.018 112.978C334.646 112.946 327.416 114.97 321.17 118.813C314.925 122.657 309.92 128.163 306.739 134.69C303.558 141.216 302.331 148.496 303.202 155.68C304.073 162.864 307.005 169.658 311.658 175.27L311.669 175.239Z" fill="#8BAA36"/>
<path opacity="0.5" d="M311.669 175.239C311.669 175.239 331.692 177.177 341.832 189.359C341.832 189.359 352.559 175.249 371.814 175.532C376.517 169.96 379.511 163.193 380.447 156.016C381.382 148.84 380.222 141.55 377.1 134.996C373.978 128.442 369.023 122.893 362.812 118.995C356.602 115.097 349.39 113.01 342.018 112.978C334.646 112.946 327.416 114.97 321.17 118.813C314.925 122.657 309.92 128.163 306.739 134.69C303.558 141.216 302.331 148.496 303.202 155.68C304.073 162.864 307.005 169.658 311.658 175.27L311.669 175.239Z" fill="#FAFAFA"/>
<path d="M341.165 115.616L340.492 242.968H343.876L341.165 115.616Z" fill="#B8B8B8"/>
<path d="M342.183 185.608C342.183 185.608 348.95 173.667 361.107 170.011C361.107 170.011 348.299 172.996 341.895 183.282L342.183 185.608Z" fill="#B8B8B8"/>
<path d="M342.183 151.775C342.183 151.775 348.95 139.834 361.107 136.189C361.107 136.189 348.299 139.174 341.895 149.45L342.183 151.775Z" fill="#B8B8B8"/>
<path d="M342.183 168.691C342.183 168.691 348.95 156.75 361.107 153.094C361.107 153.094 348.299 156.079 341.895 166.366L342.183 168.691Z" fill="#B8B8B8"/>
<path d="M341.18 160.396C341.18 160.396 334.659 148.455 322.918 144.809C322.918 144.809 335.31 147.795 341.511 158.07L341.18 160.396Z" fill="#B8B8B8"/>
<path d="M341.18 176.977C341.18 176.977 334.659 165.036 322.918 161.39C322.918 161.39 335.31 164.376 341.511 174.662L341.18 176.977Z" fill="#B8B8B8"/>
<path d="M117.934 175.239C117.934 175.239 137.958 177.177 148.098 189.359C148.098 189.359 158.771 175.249 178.08 175.532C182.783 169.961 185.776 163.193 186.712 156.016C187.648 148.84 186.487 141.55 183.365 134.996C180.243 128.442 175.289 122.893 169.078 118.995C162.867 115.097 155.656 113.01 148.284 112.978C140.912 112.946 133.682 114.97 127.436 118.814C121.19 122.657 116.186 128.163 113.004 134.69C109.823 141.217 108.597 148.496 109.468 155.68C110.339 162.864 113.271 169.658 117.924 175.27L117.934 175.239Z" fill="#8BAA36"/>
<path opacity="0.5" d="M117.934 175.239C117.934 175.239 137.958 177.177 148.098 189.359C148.098 189.359 158.771 175.249 178.08 175.532C182.783 169.961 185.776 163.193 186.712 156.016C187.648 148.84 186.487 141.55 183.365 134.996C180.243 128.442 175.289 122.893 169.078 118.995C162.867 115.097 155.656 113.01 148.284 112.978C140.912 112.946 133.682 114.97 127.436 118.814C121.19 122.657 116.186 128.163 113.004 134.69C109.823 141.217 108.597 148.496 109.468 155.68C110.339 162.864 113.271 169.658 117.924 175.27L117.934 175.239Z" fill="#FAFAFA"/>
<path d="M147.438 115.617L146.766 242.968H150.149L147.438 115.617Z" fill="#B8B8B8"/>
<path d="M148.507 185.608C148.507 185.608 155.274 173.667 167.431 170.012C167.431 170.012 154.623 172.997 148.219 183.283L148.507 185.608Z" fill="#B8B8B8"/>
<path d="M148.507 151.776C148.507 151.776 155.274 139.834 167.431 136.189C167.431 136.189 154.623 139.175 148.219 149.45L148.507 151.776Z" fill="#B8B8B8"/>
<path d="M148.507 168.692C148.507 168.692 155.274 156.75 167.431 153.095C167.431 153.095 154.623 156.08 148.219 166.366L148.507 168.692Z" fill="#B8B8B8"/>
<path d="M147.439 160.396C147.439 160.396 140.928 148.455 129.188 144.862C129.188 144.862 141.58 147.847 147.781 158.123L147.439 160.396Z" fill="#B8B8B8"/>
<path d="M147.438 176.977C147.438 176.977 140.917 165.036 129.176 161.391C129.176 161.391 141.568 164.376 147.769 174.662L147.438 176.977Z" fill="#B8B8B8"/>
<path d="M18.0332 243.523H478.64" stroke="#22252A" stroke-width="1.04742" stroke-miterlimit="10"/>
<path opacity="0.3" d="M143.798 294.073C143.798 297.215 124.127 299.719 99.8444 299.719C75.562 299.719 55.8906 297.194 55.8906 294.073C55.8906 290.951 75.5727 288.427 99.8444 288.427C124.116 288.427 143.798 290.962 143.798 294.073Z" fill="black"/>
<path opacity="0.3" d="M235.814 294.073C235.814 297.215 216.132 299.718 191.86 299.718C167.588 299.718 147.906 297.194 147.906 294.073C147.906 290.951 167.588 288.427 191.86 288.427C216.132 288.427 235.814 290.962 235.814 294.073Z" fill="black"/>
<path opacity="0.3" d="M357.711 294.073C357.711 297.215 338.04 299.718 313.768 299.718C289.496 299.718 269.814 297.194 269.814 294.073C269.814 290.951 289.486 288.427 313.768 288.427C338.051 288.427 357.711 290.962 357.711 294.073Z" fill="black"/>
<path opacity="0.3" d="M459.532 294.073C459.532 297.215 439.85 299.718 415.578 299.718C391.307 299.718 371.582 297.194 371.582 294.073C371.582 290.951 391.264 288.427 415.536 288.427C439.807 288.427 459.532 290.962 459.532 294.073Z" fill="black"/>
<path d="M318.518 128.909C318.518 128.909 316.714 136.241 316.714 137.477C316.713 138.242 316.627 139.004 316.458 139.75C316.458 139.75 312.605 144.286 313.117 145.543C313.74 146.52 314.632 147.305 315.69 147.805C315.69 147.805 317.739 155.138 319.799 155.62C321.915 156.008 324.054 156.259 326.203 156.374L326.972 162.418L337.239 160.909L334.678 151.838L335.745 144.024C335.745 144.024 337.538 140.756 335.745 135.466C333.952 130.177 330.099 129.925 327.527 129.925C324.508 129.738 321.501 129.398 318.518 128.909Z" fill="#FAFAFA" stroke="#22252A" stroke-width="1.04742" stroke-linecap="round" stroke-linejoin="round"/>
<path d="M323.129 125.138C323.129 125.138 314.142 124.876 314.398 127.149C314.654 129.422 323.897 132.386 323.897 132.386C323.897 132.386 320.813 134.397 322.35 136.419C323.887 138.44 327.484 140.2 327.484 140.2C327.484 140.2 326.416 144.484 328.007 144.736C329.597 144.987 330.568 142.714 330.825 141.96C331.081 141.206 333.909 141.457 334.678 143.468C335.112 144.513 335.372 145.621 335.446 146.747C335.446 146.747 338.531 137.676 339.043 133.643C339.556 129.61 328.007 125.138 323.129 125.138Z" fill="#22252A" stroke="#22252A" stroke-width="1.04742" stroke-linecap="round" stroke-linejoin="round"/>
<path d="M328.824 144.861C328.824 144.861 331.93 138.158 333.787 141.457C335.645 144.757 334.855 148.192 333.03 148.559C331.204 148.926 329.678 149.282 329.678 149.282" fill="#FAFAFA"/>
<path d="M328.824 144.861C328.824 144.861 331.93 138.158 333.787 141.457C335.645 144.757 334.855 148.192 333.03 148.559C331.204 148.926 329.678 149.282 329.678 149.282" stroke="#22252A" stroke-width="1.04742" stroke-linecap="round" stroke-linejoin="round"/>
<path d="M316.2 214.822C315.698 215.398 307.469 232.713 306.444 238.506C305.419 244.298 298.748 278.823 298.482 280.331C298.215 281.839 284.115 284.867 283.08 285.118C282.044 285.369 284.147 288.145 287.189 288.899C290.231 289.654 299.004 293.184 301.064 291.162C303.124 289.14 305.942 277.807 306.711 276.55C307.479 275.293 321.931 241.878 321.931 241.878C321.931 241.878 329.339 225.842 330.876 224.323C332.413 222.804 329.051 216.09 327.759 214.068C326.468 212.046 319.797 210.789 316.2 214.822Z" fill="#22252A" stroke="#22252A" stroke-width="1.04742" stroke-linecap="round" stroke-linejoin="round"/>
<path d="M314.662 215.042C314.662 215.042 318.259 231.927 320.052 237.971C321.731 243.047 324.255 247.815 327.524 252.08C329.584 254.856 339.596 279.314 339.596 279.314L341.133 283.096C341.133 283.096 340.62 284.604 337.802 286.615C334.985 288.626 327.011 291.905 329.071 292.67C331.131 293.434 339.339 293.424 343.193 293.172C346.51 292.942 349.62 291.504 351.913 289.14C353.461 287.369 349.351 282.331 349.351 281.326C349.351 280.32 340.364 249.587 339.852 248.068C339.339 246.55 336.767 235.729 336.767 235.729V223.421C336.767 223.421 338.059 221.159 338.059 216.089C338.059 211.019 334.205 210.035 334.205 210.035L313.146 212.056L314.662 215.042Z" fill="#22252A" stroke="#22252A" stroke-width="1.04742" stroke-linecap="round" stroke-linejoin="round"/>
<path d="M312.875 213.565C312.875 213.565 313.398 217.849 314.935 218.1C316.472 218.352 332.386 222.636 339.324 217.597C339.324 217.597 340.605 213.816 339.836 212.811C339.068 211.805 337.264 212.308 328.031 212.308C318.799 212.308 312.875 212.308 312.875 213.565Z" fill="#8BAA36" stroke="#22252A" stroke-width="1.04742" stroke-linecap="round" stroke-linejoin="round"/>
<path d="M336.474 157.127C336.474 157.127 326.974 158.384 322.865 162.365C318.756 166.345 315.169 173.709 313.376 180.507C311.583 187.305 310.291 212.256 312.853 213.513C315.415 214.77 336.986 216.037 340.604 214.56C344.223 213.083 340.348 201.205 340.348 196.669C340.348 192.134 344.458 176.767 343.689 168.21C342.921 159.652 336.474 157.127 336.474 157.127Z" fill="#8BAA36" stroke="#22252A" stroke-width="1.04742" stroke-linecap="round" stroke-linejoin="round"/>
<path d="M302.197 183.314C302.079 172.944 297.767 164.093 292.035 160.27V158.175L276.239 158.332C267.347 158.426 260.228 169.854 260.41 183.786C260.591 197.717 267.881 208.998 276.783 208.925L292.58 208.768V206.673C298.13 202.619 302.25 193.684 302.197 183.314Z" fill="#22252A" stroke="#22252A" stroke-width="1.04742" stroke-linecap="round" stroke-linejoin="round"/>
<path d="M309.285 183.241C309.168 172.347 304.888 163.046 298.868 159.002V156.771L292.101 156.845C282.751 156.939 275.311 168.911 275.471 183.586C275.631 198.262 283.327 210.077 292.677 209.983L299.444 209.909V207.689C305.325 203.52 309.403 194.093 309.285 183.241Z" fill="#FAFAFA" stroke="#22252A" stroke-width="1.04742" stroke-linecap="round" stroke-linejoin="round"/>
<path d="M316.075 183.168C316.235 197.832 308.785 209.815 299.446 209.909C290.106 210.004 282.368 198.188 282.24 183.524C282.112 168.859 289.53 156.876 298.869 156.771C308.209 156.667 315.894 168.492 316.075 183.168Z" fill="#737373" stroke="#22252A" stroke-width="1.04742" stroke-linecap="round" stroke-linejoin="round"/>
<path d="M312.196 182.717C312.271 189.662 308.738 195.339 304.308 195.391C299.879 195.444 296.228 189.829 296.154 182.822C296.079 175.814 299.612 170.252 304.041 170.147C308.471 170.043 312.121 175.762 312.196 182.717Z" fill="#22252A" stroke="#22252A" stroke-width="1.04742" stroke-linecap="round" stroke-linejoin="round"/>
<path d="M437.974 234.944C438.855 228.487 439.229 221.974 439.094 215.461C435.625 217.032 415.388 217.608 413.531 217.65C411.674 217.692 391.437 217.032 387.968 215.461C387.815 221.972 388.172 228.486 389.035 234.944C390.434 243.439 402.729 277.45 403.007 279.095C403.367 280.681 403.834 282.241 404.405 283.766C404.405 283.766 397.414 288.7 394.34 290.617C391.266 292.534 393.508 293.361 396.582 293.361C399.656 293.361 406.081 292.534 408.034 292.534C409.763 292.534 412.773 291.057 413.478 290.701C414.182 291.057 417.192 292.534 418.911 292.534C420.875 292.534 427.3 293.361 430.374 293.361C433.448 293.361 435.711 292.534 432.615 290.617C429.52 288.7 422.55 283.766 422.55 283.766C423.122 282.241 423.589 280.681 423.949 279.095C424.279 277.419 436.575 243.407 437.974 234.944Z" fill="#22252A" stroke="#22252A" stroke-width="1.04742" stroke-linecap="round" stroke-linejoin="round"/>
<path d="M409.302 162.134C409.302 162.134 398.49 165.601 392.908 169.078C387.325 172.556 381.722 191.389 381.722 192.123C381.401 193.435 380.965 194.718 380.419 195.956C380.419 195.956 374.827 194.679 373.716 199.246C372.606 203.812 379.299 209.668 382.842 209.856C386.386 210.045 387.496 208.945 387.496 208.945C387.496 208.945 385.265 213.334 386.194 215.157C387.122 216.979 394.957 223.756 410.423 223.536C425.889 223.316 437.107 220.792 438.74 218.603C440.373 216.414 440.608 211.836 440.608 211.836C440.608 211.836 446.382 210.37 448.431 206.714C450.481 203.058 450.107 199.214 448.986 195.38C447.866 191.547 442.091 180.412 438.185 174.19C434.278 167.968 426.07 164.501 422.174 163.401C418.279 162.301 411.906 162.134 409.302 162.134Z" fill="#8BAA36" stroke="#22252A" stroke-width="1.04742" stroke-linecap="round" stroke-linejoin="round"/>
<path d="M412.579 177.532C414.127 177.029 418.983 172.797 420.851 168.565C421.59 166.945 422.11 165.237 422.399 163.485L422.153 163.412C418.247 162.312 411.907 162.134 409.345 162.134C409.345 162.134 407.082 162.856 404.094 163.977C404.112 166.242 404.546 168.484 405.375 170.597C407.061 174.829 411.074 178.045 412.579 177.532Z" fill="#FAFAFA" stroke="#22252A" stroke-width="1.04742" stroke-linecap="round" stroke-linejoin="round"/>
<path d="M430.35 186.079C430.35 186.079 434.822 209.49 439.892 211.899" stroke="#22252A" stroke-width="1.04742" stroke-linecap="round" stroke-linejoin="round"/>
<path d="M387.496 208.946C387.496 208.946 393.089 188.279 393.463 186.268" stroke="#22252A" stroke-width="1.04742" stroke-linecap="round" stroke-linejoin="round"/>
<path d="M437.572 196.659C437.572 196.659 434.477 197.339 434.477 199.539" stroke="#22252A" stroke-width="1.04742" stroke-linecap="round" stroke-linejoin="round"/>
<path d="M384.99 196.994C384.99 196.994 388.438 199.194 388.096 202.577" stroke="#22252A" stroke-width="1.04742" stroke-linecap="round" stroke-linejoin="round"/>
<path d="M408.086 292.554C409.816 292.554 412.825 291.077 413.53 290.72C414.234 291.077 417.244 292.554 418.963 292.554C420.927 292.554 427.352 293.381 430.426 293.381C433.5 293.381 435.763 292.554 432.668 290.637C429.989 288.971 424.374 285.033 422.944 284.027C419.646 286.981 413.124 286.248 413.124 286.248C411.803 286.052 410.495 285.78 409.207 285.431C407.254 284.876 404.457 283.786 404.457 283.786C404.457 283.786 397.466 288.72 394.392 290.637C391.318 292.554 393.56 293.381 396.634 293.381C399.708 293.381 406.133 292.554 408.086 292.554Z" fill="#8BAA36" stroke="#22252A" stroke-width="1.04742" stroke-linecap="round" stroke-linejoin="round"/>
<path d="M413.117 283.828V236.001" stroke="#FAFAFA" stroke-width="1.04742" stroke-linecap="round" stroke-linejoin="round"/>
<path d="M413.523 290.667L413.117 286.195V283.827" stroke="#22252A" stroke-width="1.04742" stroke-linecap="round" stroke-linejoin="round"/>
<path d="M409.199 234.356H417.3" stroke="#FAFAFA" stroke-width="1.04742" stroke-linecap="round" stroke-linejoin="round"/>
<path d="M398.614 134.69C398.614 134.69 392.807 138.105 393.672 141.101C394.536 144.096 397.162 144.673 396.586 146.338C396.009 148.003 393.992 149.051 396.287 150.098C397.594 150.673 398.961 151.105 400.364 151.387C400.364 151.387 402.499 158.656 406.171 159.934C409.842 161.212 416.204 160.364 420.708 159.798C422.229 159.652 423.67 159.054 424.837 158.085C426.003 157.116 426.842 155.821 427.24 154.372C427.678 152.811 425.351 154.665 424.187 152.948C423.024 151.23 424.775 146.82 426.077 142.965C427.379 139.11 423.462 131.841 418.381 129.421C413.3 127.002 403.598 128.269 398.614 134.69Z" fill="#22252A" stroke="#22252A" stroke-width="1.04742" stroke-linecap="round" stroke-linejoin="round"/>
<path d="M408.375 159.526C407.637 161.917 407.136 164.372 406.881 166.858C406.689 170 409.304 173.447 412.1 173.258C414.897 173.07 417.309 167.591 417.683 164.878C418.056 162.165 416.754 154.823 416.754 154.823C416.754 154.823 412.485 155.011 410.788 156.467C409.791 157.325 408.972 158.364 408.375 159.526Z" fill="#FAFAFA" stroke="#22252A" stroke-width="1.04742" stroke-linecap="round" stroke-linejoin="round"/>
<path d="M404.585 138.681C404.585 138.681 404.723 142.955 409.089 147.061C411.713 149.551 414.825 151.493 418.236 152.77C418.16 153.706 417.914 154.621 417.51 155.472C417.321 155.828 417.025 156.119 416.663 156.306C416.3 156.493 415.889 156.568 415.482 156.52H414.02C414.02 156.52 411.885 161.432 409.302 162.145C406.719 162.857 400.369 162.365 399.493 156.09C398.618 149.816 398.479 144.683 399.205 143.395C399.931 142.107 404.585 138.681 404.585 138.681Z" fill="#FAFAFA" stroke="#22252A" stroke-width="1.04742" stroke-linecap="round" stroke-linejoin="round"/>
<path d="M450.25 193.882C450.912 192.572 451.314 191.15 451.435 189.693C451.435 187.786 447.827 185.052 447.165 184.371C446.504 183.691 445.842 183.764 445.703 184.717C445.701 185.252 445.811 185.782 446.026 186.274C446.241 186.766 446.556 187.209 446.952 187.577C447.493 187.995 447.885 188.571 448.073 189.221C448.137 189.693 446.877 192.007 447.507 193.505C448.137 195.003 449.909 195.454 450.25 193.882Z" fill="#FAFAFA" stroke="#22252A" stroke-width="1.04742" stroke-linecap="round" stroke-linejoin="round"/>
<path d="M305.707 183.188C305.707 183.188 321.419 188.122 330.865 199.644C340.311 211.166 346.512 209.511 358.253 205.678C369.994 201.844 374.466 188.122 390.679 199.644C406.892 211.166 410.244 215.545 423.661 208.967C437.077 202.389 444.335 186.477 456.642 191.956C468.949 197.434 463.345 225.475 464.466 239.092C465.586 252.709 463.9 286.825 466.696 291.214C469.493 295.603 498.002 292.261 498.002 292.261" stroke="#22252A" stroke-width="3.14226" stroke-linecap="round" stroke-linejoin="round"/>
<path d="M335.132 164.879C335.132 164.879 332.005 159.872 327.394 161.181C322.516 162.564 319.997 169.404 318.855 173.667C317.713 177.93 316.944 182.539 314.852 186.509C314.852 186.509 305.609 186.352 300.454 184.886C296.52 183.682 292.651 182.284 288.862 180.696C288.862 180.696 287.037 178.192 285.745 177.7C284.454 177.208 281.102 176.244 280.857 176.998C280.611 177.752 284.742 180.235 284.742 180.235C284.742 180.235 277.057 181.282 276.289 182.089C275.52 182.895 281.721 185.304 281.721 185.304C281.721 185.304 284.038 186.038 289.673 184.718C289.673 184.718 310.348 197.602 314.468 199.079C318.588 200.556 320.872 201.027 323.679 195.706C326.486 190.385 335.804 177.187 337.288 171.876" fill="#8BAA36"/>
<path d="M335.132 164.879C335.132 164.879 332.005 159.872 327.394 161.181C322.516 162.564 319.997 169.404 318.855 173.667C317.713 177.93 316.944 182.539 314.852 186.509C314.852 186.509 305.609 186.352 300.454 184.886C296.52 183.682 292.651 182.284 288.862 180.696C288.862 180.696 287.037 178.192 285.745 177.7C284.454 177.208 281.102 176.244 280.857 176.998C280.611 177.752 284.742 180.235 284.742 180.235C284.742 180.235 277.057 181.282 276.289 182.089C275.52 182.895 281.721 185.304 281.721 185.304C281.721 185.304 284.038 186.038 289.673 184.718C289.673 184.718 310.348 197.602 314.468 199.079C318.588 200.556 320.872 201.027 323.679 195.706C326.486 190.385 335.804 177.187 337.288 171.876" stroke="#22252A" stroke-width="1.04742" stroke-linecap="round" stroke-linejoin="round"/>
<path d="M294.23 182.832C291.209 181.722 288.893 180.737 288.893 180.737C288.893 180.737 287.068 178.234 285.777 177.741C284.485 177.249 281.134 176.285 280.888 177.04C280.643 177.794 284.773 180.276 284.773 180.276C284.773 180.276 277.088 181.324 276.32 182.13C275.551 182.937 281.753 185.346 281.753 185.346C281.753 185.346 284.069 186.079 289.705 184.759L292.597 186.551L294.23 182.832Z" fill="#FAFAFA" stroke="#22252A" stroke-width="1.04742" stroke-linecap="round" stroke-linejoin="round"/>
<path d="M373.915 195.81C373.253 194.5 372.851 193.078 372.73 191.62C372.73 189.714 376.349 186.99 377 186.309C377.651 185.629 378.313 185.702 378.452 186.655C378.453 187.19 378.344 187.72 378.129 188.212C377.914 188.704 377.599 189.147 377.203 189.515C376.662 189.933 376.27 190.509 376.082 191.159C376.018 191.62 377.277 193.945 376.648 195.443C376.018 196.941 374.257 197.371 373.915 195.81Z" fill="#FAFAFA" stroke="#22252A" stroke-width="1.04742" stroke-linecap="round" stroke-linejoin="round"/>
<path d="M376.402 190.059C376.402 190.059 373.424 195.454 375.153 197.392C376.882 199.33 378.558 193.034 378.878 191.295C379.198 189.557 377.501 187.807 376.402 190.059Z" fill="#FAFAFA" stroke="#22252A" stroke-width="1.04742" stroke-linecap="round" stroke-linejoin="round"/>
<path d="M378.855 191.997C378.855 191.997 375.877 197.392 377.606 199.33C379.335 201.267 381.011 194.972 381.331 193.233C381.652 191.494 379.954 189.682 378.855 191.997Z" fill="#FAFAFA" stroke="#22252A" stroke-width="1.04742" stroke-linecap="round" stroke-linejoin="round"/>
<path d="M381.562 192.448C381.562 192.448 378.584 197.842 380.313 199.78C382.042 201.718 383.718 195.423 384.038 193.684C384.359 191.945 382.661 190.185 381.562 192.448Z" fill="#FAFAFA" stroke="#22252A" stroke-width="1.04742" stroke-linecap="round" stroke-linejoin="round"/>
<path d="M385.017 192.489C385.017 192.489 382.242 196.679 383.757 198.261C385.273 199.842 386.906 194.867 387.226 193.432C387.547 191.997 386.042 190.604 385.017 192.489Z" fill="#FAFAFA" stroke="#22252A" stroke-width="1.04742" stroke-linecap="round" stroke-linejoin="round"/>
<path d="M448.274 190.27C448.274 190.27 451.252 195.664 449.522 197.602C447.793 199.54 446.118 193.234 445.797 191.495C445.477 189.756 447.174 188.007 448.274 190.27Z" fill="#FAFAFA" stroke="#22252A" stroke-width="1.04742" stroke-linecap="round" stroke-linejoin="round"/>
<path d="M445.822 192.154C445.822 192.154 448.8 197.549 447.071 199.487C445.342 201.425 443.666 195.119 443.346 193.38C443.026 191.641 444.723 189.902 445.822 192.154Z" fill="#FAFAFA" stroke="#22252A" stroke-width="1.04742" stroke-linecap="round" stroke-linejoin="round"/>
<path d="M443.096 192.657C443.096 192.657 446.074 198.052 444.345 199.99C442.616 201.928 440.94 195.632 440.631 193.883C440.321 192.134 442.029 190.395 443.096 192.657Z" fill="#FAFAFA" stroke="#22252A" stroke-width="1.04742" stroke-linecap="round" stroke-linejoin="round"/>
<path d="M439.653 192.699C439.653 192.699 442.428 196.941 440.912 198.47C439.396 200 437.763 195.077 437.454 193.641C437.144 192.206 438.628 190.813 439.653 192.699Z" fill="#FAFAFA" stroke="#22252A" stroke-width="1.04742" stroke-linecap="round" stroke-linejoin="round"/>
<path d="M72.4331 252.384V258.333C70.3292 260.59 68.8163 263.315 68.0249 266.273C66.7334 271.133 62.6881 292.051 63.7555 292.596C64.8228 293.141 74.8667 295.393 78.0687 294.921C81.7405 294.377 84.8678 294.565 83.0213 292.575C81.1748 290.585 71.4725 285.023 71.4725 285.023C71.4725 285.023 82.146 269.876 84.5156 264.283C86.8851 258.689 87.2694 250.037 87.2694 250.037L72.9454 249.503L72.4331 252.384Z" fill="#FAFAFA" stroke="#22252A" stroke-width="1.04742" stroke-linecap="round" stroke-linejoin="round"/>
<path d="M78.0695 294.921C81.7412 294.377 84.8686 294.565 83.022 292.575C81.1755 290.585 71.4732 285.023 71.4732 285.023L71.1103 287.18L64.1192 286.343C63.6068 289.841 63.3827 292.407 63.7562 292.627C64.8983 293.13 74.8674 295.393 78.0695 294.921Z" fill="#22252A" stroke="#22252A" stroke-width="1.04742" stroke-linecap="round" stroke-linejoin="round"/>
<path d="M107.521 255.463L109.175 258.354C108.489 259.652 108.086 261.075 107.99 262.534C107.895 263.992 108.109 265.455 108.62 266.828C110.274 271.877 114.138 290.448 114.138 291.527C114.138 292.606 116.518 293.329 118.408 293.329C120.297 293.329 125.527 293.685 126.263 293.685C127 293.685 132.326 294.586 134.162 293.507C135.998 292.428 131.824 290.26 129.071 289.003C126.317 287.746 120.254 284.499 120.254 284.499C120.254 284.499 121.716 269.708 121.716 263.214C121.716 256.72 123.189 254.562 121.172 250.592C119.155 246.622 106.475 252.404 106.475 252.404L107.521 255.463Z" fill="#FAFAFA" stroke="#22252A" stroke-width="1.04742" stroke-linecap="round" stroke-linejoin="round"/>
<path d="M129.014 289.003C126.26 287.736 120.198 284.499 120.198 284.499L119.461 287.202L113.559 288.249C113.911 290.051 114.135 291.287 114.135 291.538C114.135 292.585 116.515 293.34 118.404 293.34C120.294 293.34 125.524 293.696 126.26 293.696C126.997 293.696 132.323 294.597 134.159 293.518C135.994 292.439 131.768 290.26 129.014 289.003Z" fill="#22252A" stroke="#22252A" stroke-width="1.04742" stroke-linecap="round" stroke-linejoin="round"/>
<path d="M97.6207 135.434C96.1804 133.019 94.5344 130.727 92.7002 128.584C90.1706 125.787 82.2401 125.944 78.7605 129.631C75.281 133.318 76.3803 139.896 77.6932 141.761C79.006 143.625 81.6531 152.34 81.6531 152.34L82.2828 158.562L97.023 163.695L94.0131 153.587C94.0131 153.587 99.7234 152.539 100.193 150.79C100.663 149.041 99.2431 143.165 99.2431 143.165C99.2431 143.165 101.143 141.918 100.983 140.829C100.823 139.739 97.6207 135.434 97.6207 135.434Z" fill="#FAFAFA" stroke="#22252A" stroke-width="1.04742" stroke-linecap="round" stroke-linejoin="round"/>
<path d="M80.6602 142.141C80.6602 142.141 83.1791 144.236 84.556 141.837C85.9329 139.438 86.9789 137.092 86.9789 135.06C86.9789 133.028 81.8022 131.341 85.2498 129.979C88.6973 128.618 91.1843 131.645 92.7213 128.607C94.2583 125.57 92.86 125.245 84.5774 125.245C76.2947 125.245 72.1533 129.309 73.9038 134.389C75.3038 138.141 77.0359 141.765 79.0805 145.22L80.6602 142.141Z" fill="#22252A" stroke="#22252A" stroke-width="1.04742" stroke-linecap="round" stroke-linejoin="round"/>
<path d="M98.0838 139.028C98.0838 139.796 97.8516 140.548 97.4165 141.187C96.9814 141.826 96.3629 142.324 95.6393 142.618C94.9158 142.912 94.1196 142.989 93.3514 142.839C92.5833 142.689 91.8777 142.319 91.3239 141.776C90.7701 141.232 90.3929 140.54 90.2402 139.786C90.0874 139.032 90.1658 138.251 90.4655 137.541C90.7652 136.831 91.2728 136.224 91.924 135.797C92.5752 135.37 93.3408 135.142 94.124 135.142C95.1742 135.142 96.1814 135.551 96.924 136.28C97.6666 137.009 98.0838 137.997 98.0838 139.028Z" stroke="#22252A" stroke-width="1.04742" stroke-linecap="round" stroke-linejoin="round"/>
<path d="M97.5234 135.582C97.9842 135.396 98.4771 135.3 98.975 135.299C99.7996 135.3 100.6 135.57 101.252 136.066C101.903 136.562 102.369 137.256 102.575 138.04C102.781 138.823 102.717 139.652 102.392 140.395C102.067 141.139 101.499 141.756 100.779 142.149" stroke="#22252A" stroke-width="1.04742" stroke-linecap="round" stroke-linejoin="round"/>
<path d="M90.1762 139.028L80.666 142.139" stroke="#22252A" stroke-width="1.04742" stroke-linecap="round" stroke-linejoin="round"/>
<path d="M83.4018 144.16C83.4018 144.16 81.5019 140.274 79.602 141.017C77.7021 141.761 78.6521 147.868 80.552 148.486C81.1904 148.627 81.854 148.616 82.4872 148.454C83.1204 148.292 83.7049 147.983 84.1916 147.554C84.1916 147.554 85.782 150.822 87.6819 151.744" fill="#FAFAFA"/>
<path d="M83.4018 144.16C83.4018 144.16 81.5019 140.274 79.602 141.017C77.7021 141.761 78.6521 147.868 80.552 148.486C81.1904 148.627 81.854 148.616 82.4872 148.454C83.1204 148.292 83.7049 147.983 84.1916 147.554C84.1916 147.554 85.782 150.822 87.6819 151.744" stroke="#22252A" stroke-width="1.04742" stroke-linecap="round" stroke-linejoin="round"/>
<path d="M70.9276 213.995L69.7428 228.89L66.1992 250.939C66.1992 250.939 74.4819 257.318 82.2096 257.318C89.9372 257.318 92.0613 256.355 92.0613 256.355L96.3947 233.729L100.728 257.518C100.728 257.518 109.267 256.166 114.924 254.805C118.858 253.73 122.586 252.032 125.961 249.777L114.529 220.573L112.053 205.511C112.053 205.511 99.2446 206.673 91.5489 207.061C83.8533 207.448 73.6173 205.511 73.6173 205.511L70.9276 213.995Z" fill="#8BAA36" stroke="#22252A" stroke-width="1.04742" stroke-linecap="round" stroke-linejoin="round"/>
<path d="M79.0572 154.478C79.0572 154.478 97.2023 160.69 102.806 166.723C105.901 170.075 109.37 193.015 110.619 198.619C111.868 204.223 114.045 215.378 114.045 215.378C114.045 215.378 102.977 220.28 94.4165 220.458C85.8563 220.636 69.4297 216.782 69.4297 216.782C69.4297 216.782 71.3829 191.925 71.3829 180.372C71.3829 168.818 71.5644 161.276 73.5177 157.6C73.5283 157.631 76.7411 154.122 79.0572 154.478Z" fill="#22252A" stroke="#22252A" stroke-width="1.04742" stroke-linecap="round" stroke-linejoin="round"/>
<path d="M74.2721 218.582C74.2721 218.582 75.2541 234.829 74.2721 240.831C73.5826 244.703 72.3917 248.473 70.7285 252.049" stroke="#22252A" stroke-width="1.04742" stroke-linecap="round" stroke-linejoin="round"/>
<path d="M74.6836 226.323C76.1656 225.824 77.4899 224.955 78.5265 223.801C79.5632 222.648 80.2766 221.25 80.5967 219.745" stroke="#22252A" stroke-width="1.04742" stroke-linecap="round" stroke-linejoin="round"/>
<path d="M67.1797 247.796C67.1797 247.796 77.0421 256.113 92.412 253.034" stroke="#22252A" stroke-width="1.04742" stroke-linecap="round" stroke-linejoin="round"/>
<path d="M100.297 252.624C100.297 252.624 116.457 250.885 123.555 246.245" stroke="#22252A" stroke-width="1.04742" stroke-linecap="round" stroke-linejoin="round"/>
<path d="M172.583 146.957C172.583 146.957 171.025 148.089 165.592 151.985C160.159 155.882 164.439 161.768 164.439 161.768C164.439 161.768 160.554 162.366 155.366 167.718C150.179 173.071 157.683 182.257 164.695 183.692C171.708 185.127 179.905 176.611 182.36 168.713C184.815 160.815 181.57 148.906 179.937 146.444C178.304 143.982 172.583 146.957 172.583 146.957Z" fill="#22252A" stroke="#22252A" stroke-width="1.04742" stroke-linecap="round" stroke-linejoin="round"/>
<path d="M193.155 145.909C193.155 145.909 195.855 141.814 193.411 135.875C190.967 129.935 183.666 127.222 176.557 131.528C174.188 132.911 172.35 135.023 171.33 137.537C170.309 140.05 170.162 142.824 170.911 145.427C171.605 148.172 175.106 152.393 175.842 152.456C176.579 152.519 182.972 154.802 187.338 152.802C191.703 150.801 193.155 145.909 193.155 145.909Z" fill="#22252A" stroke="#22252A" stroke-width="1.04742" stroke-linecap="round" stroke-linejoin="round"/>
<path d="M161.754 284.174C161.754 284.174 166.824 291.915 175.63 293.235C184.435 294.555 176.515 286.804 175.032 285.63C173.548 284.457 162.949 281.922 161.754 284.174Z" fill="#737373" stroke="#22252A" stroke-width="1.04742" stroke-linecap="round" stroke-linejoin="round"/>
<path d="M208.662 286.164C208.662 286.164 218.342 288.5 217.595 290.553C216.848 292.606 208.96 292.449 204.349 291.276C199.738 290.103 195.405 288.353 196.003 286.458C196.6 284.562 208.662 286.164 208.662 286.164Z" fill="#737373" stroke="#22252A" stroke-width="1.04742" stroke-linecap="round" stroke-linejoin="round"/>
<path d="M181.138 161.307C181.138 161.307 168.18 163.172 165.811 167.665C163.441 172.159 166.782 196.639 166.782 196.639C166.782 196.639 161.253 208.611 161.178 216.321C161.104 224.03 164.605 237.595 164.327 240.978C164.049 244.361 160.506 282.877 160.506 283.924C160.506 284.972 167.977 287.318 178.747 288.575C189.517 289.832 210.117 286.072 210.117 286.072C210.117 286.072 209.711 263.341 210.789 249.787C211.867 236.233 210.33 224.051 207.587 218.992C204.844 213.932 192.068 195.717 192.068 195.717C192.068 195.717 198.258 184.697 198.643 179.879C199.027 175.061 197.031 172.547 192.356 167.006C190.966 165.371 189.258 164.025 187.332 163.047C185.406 162.068 183.3 161.477 181.138 161.307Z" fill="#8BAA36" stroke="#22252A" stroke-width="1.04742" stroke-linecap="round" stroke-linejoin="round"/>
<path d="M192.089 195.726C192.089 195.726 198.28 184.707 198.664 179.889C199.048 175.07 197.052 172.556 192.377 167.015C192.153 166.743 191.919 166.502 191.684 166.251L191.513 166.408C186.71 174.107 170.828 187.263 166.099 191.097C166.462 194.375 166.772 196.638 166.772 196.638C166.772 196.638 161.243 208.61 161.168 216.32C161.256 219.833 161.613 223.334 162.235 226.794C173.453 220.51 188.46 208.747 196.583 202.189C194.043 198.502 192.089 195.726 192.089 195.726Z" fill="#737373" stroke="#22252A" stroke-width="1.04742" stroke-linecap="round" stroke-linejoin="round"/>
<path d="M178.746 152.32C179.104 155.194 179.3 158.086 179.333 160.982C179.162 163.129 179.867 168.032 183.603 169.571C187.338 171.111 189.687 168.964 189.676 166.806C189.54 165.024 189.182 163.265 188.608 161.569L188.715 155.65C188.715 155.65 182.268 151.691 178.746 152.32Z" fill="#FAFAFA" stroke="#22252A" stroke-width="1.04742" stroke-linecap="round" stroke-linejoin="round"/>
<path d="M175.395 148.476C175.395 148.476 172.652 146.108 172.566 149.523C172.481 152.938 175.683 154.069 176.387 154.3C176.982 154.379 177.585 154.233 178.074 153.891C178.074 153.891 183.048 158.081 187.04 158.353C191.031 158.626 192.654 156.814 193.593 149.701C194.532 142.589 187.05 135.372 187.05 135.372C187.05 135.372 180.646 146.957 175.395 148.476Z" fill="#FAFAFA" stroke="#22252A" stroke-width="1.04742" stroke-linecap="round" stroke-linejoin="round"/>
<path d="M114.354 215.231C114.318 214.017 114.52 212.807 114.952 211.669C115.613 210.245 119.221 209.428 120.022 209.155C120.822 208.883 121.228 209.155 120.993 209.899C120.806 210.299 120.539 210.657 120.207 210.952C119.874 211.248 119.485 211.474 119.061 211.617C118.509 211.747 118.012 212.044 117.641 212.465C117.439 212.8 117.567 214.948 116.574 215.859C115.581 216.77 114.023 216.519 114.354 215.231Z" fill="#FAFAFA" stroke="#22252A" stroke-width="1.04742" stroke-linecap="round" stroke-linejoin="round"/>
<path d="M196.147 183.733C196.147 183.733 183.338 182.089 177.692 190.866C172.046 199.644 161.49 230.356 141.925 235.3C122.36 240.244 116.767 200.734 105.027 201.834C93.8406 202.881 86.0276 201.834 79.3139 213.9C75.7276 220.363 57.796 290.931 49.3212 291.654C22.3277 293.969 4.95117 292.461 4.95117 292.461" stroke="#22252A" stroke-width="3.14226" stroke-linecap="round" stroke-linejoin="round"/>
<path d="M79.894 154.981C79.894 154.981 76.9375 153.818 72.9882 156.133C69.039 158.448 58.4082 183.797 59.198 186.51C59.9878 189.223 71.2164 194.25 77.5245 195.989C83.8326 197.728 95.264 199.865 95.264 199.865C95.264 199.865 98.8076 205.28 99.9923 205.469C101.715 205.446 103.432 205.253 105.116 204.893C105.116 204.893 107.25 206.631 108.072 204.694C108.894 202.756 107.282 200.252 105.511 198.315C103.739 196.377 96.2459 195.413 96.2459 195.413L75.9341 181.67L84.473 166.199" fill="#22252A"/>
<path d="M79.894 154.981C79.894 154.981 76.9375 153.818 72.9882 156.133C69.039 158.448 58.4082 183.797 59.198 186.51C59.9878 189.223 71.2164 194.25 77.5245 195.989C83.8326 197.728 95.264 199.865 95.264 199.865C95.264 199.865 98.8076 205.28 99.9923 205.469C101.715 205.446 103.432 205.253 105.116 204.893C105.116 204.893 107.25 206.631 108.072 204.694C108.894 202.756 107.282 200.252 105.511 198.315C103.739 196.377 96.2459 195.413 96.2459 195.413L75.9341 181.67L84.473 166.199" stroke="#22252A" stroke-width="1.04742" stroke-linecap="round" stroke-linejoin="round"/>
<path d="M99.9929 205.458C101.716 205.435 103.432 205.242 105.116 204.882C105.116 204.882 107.251 206.621 108.073 204.683C108.895 202.745 107.283 200.242 105.511 198.304C103.739 196.366 96.2465 195.403 96.2465 195.403L75.9347 181.67L78.966 176.129C71.3771 171.489 66.3391 171.834 63.6174 172.767C60.8956 179.177 58.8249 185.253 59.1878 186.499C59.9777 189.212 71.2063 194.24 77.5144 195.979C83.8224 197.717 95.2538 199.854 95.2538 199.854C95.2538 199.854 98.8081 205.27 99.9929 205.458Z" fill="#FAFAFA" stroke="#22252A" stroke-width="1.04742" stroke-linecap="round" stroke-linejoin="round"/>
<path d="M226.939 184.162C226.074 175.018 221.602 167.508 216.265 164.522L216.095 162.658L202.155 163.925C194.31 164.638 188.898 175.207 190.062 187.525C191.225 199.843 198.526 209.239 206.371 208.474L220.311 207.207L220.129 205.342C224.825 201.488 227.803 193.307 226.939 184.162Z" fill="#22252A" stroke="#22252A" stroke-width="1.04742" stroke-linecap="round" stroke-linejoin="round"/>
<path d="M233.254 183.619C232.347 174.013 227.917 166.105 222.271 162.963L222.079 161.004L216.112 161.549C207.872 162.303 202.183 173.395 203.4 186.342C204.617 199.289 212.302 209.167 220.542 208.412L226.509 207.868L226.327 205.909C231.258 201.782 234.161 193.193 233.254 183.619Z" fill="#FAFAFA" stroke="#22252A" stroke-width="1.04742" stroke-linecap="round" stroke-linejoin="round"/>
<path d="M239.229 183.041C240.457 195.988 234.768 207.081 226.517 207.835C218.266 208.589 210.592 198.701 209.343 185.765C208.094 172.828 213.805 161.673 222.045 160.971C230.285 160.269 237.991 170.105 239.229 183.041Z" fill="#FAFAFA" stroke="#22252A" stroke-width="1.04742" stroke-linecap="round" stroke-linejoin="round"/>
<path d="M245.636 175.479L222.485 177.574C222.16 177.605 221.833 177.572 221.521 177.477C221.21 177.383 220.92 177.229 220.669 177.025C220.418 176.821 220.211 176.57 220.059 176.286C219.907 176.003 219.814 175.693 219.785 175.375C219.754 175.056 219.787 174.735 219.883 174.429C219.979 174.123 220.136 173.839 220.344 173.593C220.553 173.346 220.808 173.143 221.097 172.994C221.386 172.845 221.701 172.753 222.026 172.725L245.177 170.63C245.502 170.599 245.829 170.632 246.141 170.727C246.452 170.821 246.742 170.975 246.993 171.179C247.244 171.383 247.451 171.634 247.603 171.918C247.755 172.201 247.848 172.511 247.877 172.829C247.908 173.148 247.875 173.469 247.779 173.775C247.683 174.081 247.526 174.365 247.318 174.611C247.109 174.858 246.854 175.061 246.565 175.21C246.276 175.359 245.961 175.45 245.636 175.479Z" fill="#737373" stroke="#22252A" stroke-width="1.04742" stroke-linecap="round" stroke-linejoin="round"/>
<path d="M247.347 193.485L224.196 195.58C223.871 195.61 223.544 195.577 223.232 195.483C222.921 195.389 222.631 195.235 222.38 195.03C222.129 194.826 221.922 194.575 221.77 194.292C221.618 194.009 221.525 193.699 221.495 193.38C221.465 193.062 221.498 192.74 221.594 192.434C221.69 192.129 221.847 191.844 222.055 191.598C222.263 191.352 222.519 191.148 222.808 190.999C223.096 190.851 223.412 190.759 223.737 190.73L246.888 188.635C247.542 188.58 248.193 188.779 248.698 189.191C249.204 189.603 249.523 190.193 249.588 190.835C249.619 191.153 249.586 191.475 249.49 191.781C249.393 192.086 249.237 192.371 249.029 192.617C248.82 192.863 248.565 193.066 248.276 193.215C247.987 193.364 247.672 193.456 247.347 193.485Z" fill="#737373" stroke="#22252A" stroke-width="1.04742" stroke-linecap="round" stroke-linejoin="round"/>
<path d="M173.135 163.014C173.135 163.014 167.563 164.062 164.927 167.204C162.29 170.347 156.879 194.596 158.128 197.382C159.376 200.168 179.389 203.667 185.569 204.17C190.539 204.363 195.516 204.145 200.448 203.52C200.448 203.52 205.785 203.384 207.247 203.143C208.71 202.902 211.399 201.488 211.442 200.954C211.485 200.42 211.218 199.142 209.222 198.985C207.226 198.828 202.946 197.424 202.402 197.382C203.684 197.051 204.985 196.792 206.297 196.607C206.297 196.607 206.575 195.559 204.376 195.559C202.177 195.559 200.182 195.413 199.349 196.607C198.754 197.537 198.246 198.519 197.833 199.54C197.833 199.54 185.505 200.388 178.813 197.183C172.121 193.978 170.007 192.909 170.007 192.909L174.81 174.055" fill="#8BAA36"/>
<path d="M173.135 163.014C173.135 163.014 167.563 164.062 164.927 167.204C162.29 170.347 156.879 194.596 158.128 197.382C159.376 200.168 179.389 203.667 185.569 204.17C190.539 204.363 195.516 204.145 200.448 203.52C200.448 203.52 205.785 203.384 207.247 203.143C208.71 202.902 211.399 201.488 211.442 200.954C211.485 200.42 211.218 199.142 209.222 198.985C207.226 198.828 202.946 197.424 202.402 197.382C203.684 197.051 204.985 196.792 206.297 196.607C206.297 196.607 206.575 195.559 204.376 195.559C202.177 195.559 200.182 195.413 199.349 196.607C198.754 197.537 198.246 198.519 197.833 199.54C197.833 199.54 185.505 200.388 178.813 197.183C172.121 193.978 170.007 192.909 170.007 192.909L174.81 174.055" stroke="#22252A" stroke-width="1.04742" stroke-linecap="round" stroke-linejoin="round"/>
<path d="M207.218 203.174C208.702 202.934 211.37 201.519 211.413 200.985C211.456 200.451 211.189 199.173 209.193 199.016C207.197 198.859 202.917 197.455 202.373 197.413C203.655 197.082 204.956 196.824 206.268 196.638C206.268 196.638 206.546 195.591 204.347 195.591C202.148 195.591 200.153 195.444 199.32 196.638C198.725 197.568 198.217 198.55 197.804 199.571C197.804 199.571 185.476 200.42 178.784 197.214C172.092 194.009 169.978 192.941 169.978 192.941L172.903 181.418C169.096 179.881 165.078 178.903 160.981 178.517C158.985 186.415 157.352 195.716 158.099 197.371C159.337 200.158 179.36 203.656 185.54 204.159C190.51 204.352 195.487 204.135 200.419 203.51C200.419 203.51 205.767 203.415 207.218 203.174Z" fill="#FAFAFA" stroke="#22252A" stroke-width="1.04742" stroke-linecap="round" stroke-linejoin="round"/>
<path d="M117.052 213.198C117.052 213.198 112.932 216.225 113.562 218.226C114.191 220.227 117.628 216.131 118.482 214.927C119.336 213.722 118.664 211.899 117.052 213.198Z" fill="#FAFAFA" stroke="#22252A" stroke-width="1.04742" stroke-linecap="round" stroke-linejoin="round"/>
<path d="M117.874 215.911C117.874 215.911 113.765 218.938 114.384 220.939C115.003 222.94 118.461 218.844 119.304 217.639C120.148 216.435 119.486 214.591 117.874 215.911Z" fill="#FAFAFA" stroke="#22252A" stroke-width="1.04742" stroke-linecap="round" stroke-linejoin="round"/>
<path d="M119.825 217.671C119.825 217.671 115.715 220.698 116.345 222.699C116.975 224.699 120.412 220.604 121.265 219.399C122.119 218.194 121.447 216.351 119.825 217.671Z" fill="#FAFAFA" stroke="#22252A" stroke-width="1.04742" stroke-linecap="round" stroke-linejoin="round"/>
<path d="M121.431 219.095C121.431 219.095 117.876 221.337 118.474 222.992C119.072 224.647 122.007 221.515 122.743 220.551C123.48 219.588 122.882 218.038 121.431 219.095Z" fill="#FAFAFA" stroke="#22252A" stroke-width="1.04742" stroke-linecap="round" stroke-linejoin="round"/>
</svg>
